<svg width="220" height="35" viewBox="0 0 220 35" fill="none" xmlns="http://www.w3.org/2000/svg">
<path d="M21.902 26.9379C20.4679 26.9379 19.1642 26.526 17.9909 25.7021C16.8175 24.8524 15.592 23.3977 14.3144 21.3379L10.4033 14.8883H8.83887V26.5517H3.71531V6.08276C3.71531 4.76966 3.5328 3.80414 3.16776 3.18621C2.80272 2.54254 2.07265 2.22069 0.977537 2.22069H0.586426V1.06207H11.3811C14.0928 1.06207 16.5307 1.55127 18.6949 2.52966C20.8591 3.50805 21.9411 5.38759 21.9411 8.16828C21.9411 11.3867 19.8291 13.5236 15.6051 14.5793L19.7118 21.3379C21.2502 23.8869 22.8667 25.303 24.5615 25.5862V26.5517C24.3529 26.6547 23.9749 26.7448 23.4273 26.8221C22.8798 26.8993 22.3713 26.9379 21.902 26.9379ZM11.1855 13.3435C12.6457 13.3435 13.8842 12.9186 14.9011 12.069C15.944 11.1936 16.4655 9.82897 16.4655 7.97518C16.4655 6.14713 15.9571 4.7954 14.9402 3.92C13.9233 3.04461 12.7369 2.6069 11.3811 2.6069C10.6249 2.6069 10.0383 2.6584 9.62109 2.76138L8.83887 2.87725V13.3435H11.1855ZM34.2376 26.9379C32.4385 26.9379 30.861 26.526 29.5052 25.7021C28.1492 24.8781 27.0932 23.7581 26.3372 22.3421C25.607 20.9002 25.2421 19.2781 25.2421 17.4759C25.2421 15.4676 25.607 13.7554 26.3372 12.3393C27.0932 10.9232 28.1232 9.85471 29.427 9.1338C30.7306 8.38713 32.2038 8.0138 33.8464 8.0138C35.463 8.0138 36.9232 8.33564 38.227 8.97931C39.5306 9.62299 40.5605 10.537 41.3167 11.7214C42.0728 12.88 42.451 14.2188 42.451 15.7379C42.451 16.2271 42.4248 16.7807 42.3727 17.3986L42.2945 18.171H30.5221C30.5221 20.6171 30.9001 22.4064 31.6563 23.5393C32.4124 24.6464 33.4684 25.2 34.8243 25.2C36.0758 25.2 37.1188 24.9297 37.9532 24.389C38.8136 23.8226 39.635 23.0243 40.4172 21.9945L41.6296 22.8828C40.8734 24.0414 39.9217 25.0069 38.7745 25.7793C37.6532 26.5517 36.141 26.9379 34.2376 26.9379ZM37.171 16.4331C37.171 14.0129 36.8841 12.3007 36.3105 11.2966C35.7368 10.2667 34.9155 9.75173 33.8464 9.75173C32.8557 9.75173 32.0474 10.2795 31.4216 11.3352C30.8219 12.365 30.5221 14.0643 30.5221 16.4331H37.171ZM54.4889 26.9379C52.4811 26.9379 50.7733 26.5131 49.3653 25.6635C47.9573 24.8138 46.8882 23.6809 46.1582 22.2648C45.4542 20.823 45.1022 19.2267 45.1022 17.4759C45.1022 15.725 45.4542 14.1416 46.1582 12.7255C46.8882 11.2837 47.9573 10.1379 49.3653 9.28828C50.7733 8.43862 52.4811 8.0138 54.4889 8.0138C57.6178 8.0138 59.6385 8.46437 60.5511 9.36552C60.9944 9.80323 61.2682 10.3825 61.3724 11.1035C61.4767 11.8244 61.5289 13.0474 61.5289 14.7724H60.3555C60.2513 13.1503 59.7428 11.9145 58.8302 11.0648C57.9176 10.1894 56.666 9.75173 55.0755 9.75173C53.6415 9.75173 52.4942 10.4083 51.6338 11.7214C50.7993 13.0088 50.3822 14.9269 50.3822 17.4759C50.3822 22.6253 52.0118 25.2 55.2711 25.2C56.5226 25.2 57.5656 24.9297 58.4 24.389C59.2604 23.8226 60.0818 23.0243 60.864 21.9945L62.0764 22.8828C61.3202 24.0414 60.3686 25.0069 59.2213 25.7793C58.074 26.5517 56.4966 26.9379 54.4889 26.9379ZM68.729 6.31449C67.7903 6.31449 67.0603 6.03126 66.5388 5.46483C66.0434 4.8984 65.7956 4.20323 65.7956 3.37932C65.7956 2.70989 65.9912 2.18207 66.3823 1.79587C66.7995 1.40966 67.321 1.21656 67.9468 1.21656C68.8854 1.21656 69.6025 1.49978 70.0979 2.06621C70.6194 2.63264 70.8801 3.32782 70.8801 4.15173C70.8801 4.82116 70.6715 5.34897 70.2543 5.73518C69.8632 6.12138 69.3548 6.31449 68.729 6.31449ZM66.1868 13.4207C66.1868 12.1076 66.0043 11.1421 65.6392 10.5241C65.2741 9.88047 64.5441 9.55862 63.449 9.55862H63.0579V8.4H67.7512C68.6899 8.4 69.407 8.55449 69.9023 8.86345C70.3977 9.17242 70.7497 9.68736 70.9583 10.4083C71.1669 11.1035 71.2712 12.1076 71.2712 13.4207V26.5517H66.1868V13.4207ZM76.653 13.4207C76.653 12.1076 76.4704 11.1421 76.1053 10.5241C75.7664 9.88047 75.0495 9.55862 73.9543 9.55862H73.5632V8.4H77.4352C78.3477 8.4 79.0517 8.52874 79.5472 8.78621C80.0426 9.01794 80.4337 9.42988 80.7206 10.0221C82.2589 8.68323 84.0319 8.0138 86.0397 8.0138C88.6731 8.0138 90.6939 8.90207 92.1019 10.6786C93.5359 12.4295 94.253 14.6952 94.253 17.4759C94.253 20.2566 93.5229 22.5352 92.0628 24.3117C90.6286 26.0626 88.5557 26.9379 85.8441 26.9379C84.775 26.9379 83.7712 26.7448 82.8326 26.3586C82.4153 26.2041 82.0503 26.011 81.7374 25.7793V33.8897H76.653V13.4207ZM85.0619 25.2C87.6693 25.2 88.973 22.6253 88.973 17.4759C88.973 15.1071 88.6731 13.2276 88.0735 11.8372C87.4737 10.4469 86.535 9.75173 85.2575 9.75173C83.7973 9.75173 82.5326 10.2795 81.4637 11.3352L81.581 11.8759C81.6853 12.1848 81.7374 12.6226 81.7374 13.189V24.0414C82.0242 24.2731 82.3371 24.4662 82.6761 24.6207C83.4062 25.0069 84.2015 25.2 85.0619 25.2ZM106.158 26.9379C104.359 26.9379 102.781 26.526 101.425 25.7021C100.069 24.8781 99.0134 23.7581 98.2573 22.3421C97.5272 20.9002 97.1621 19.2781 97.1621 17.4759C97.1621 15.4676 97.5272 13.7554 98.2573 12.3393C99.0134 10.9232 100.043 9.85471 101.347 9.1338C102.651 8.38713 104.124 8.0138 105.767 8.0138C107.383 8.0138 108.843 8.33564 110.147 8.97931C111.451 9.62299 112.481 10.537 113.237 11.7214C113.993 12.88 114.371 14.2188 114.371 15.7379C114.371 16.2271 114.345 16.7807 114.293 17.3986L114.215 18.171H102.442C102.442 20.6171 102.82 22.4064 103.576 23.5393C104.333 24.6464 105.389 25.2 106.744 25.2C107.996 25.2 109.039 24.9297 109.873 24.389C110.734 23.8226 111.555 23.0243 112.337 21.9945L113.55 22.8828C112.794 24.0414 111.842 25.0069 110.695 25.7793C109.573 26.5517 108.061 26.9379 106.158 26.9379ZM109.091 16.4331C109.091 14.0129 108.804 12.3007 108.231 11.2966C107.657 10.2667 106.836 9.75173 105.767 9.75173C104.776 9.75173 103.967 10.2795 103.342 11.3352C102.742 12.365 102.442 14.0643 102.442 16.4331H109.091ZM129.108 6.08276C129.108 4.76966 128.925 3.80414 128.56 3.18621C128.195 2.54254 127.465 2.22069 126.37 2.22069H125.979V1.06207H136.617C141.884 1.06207 145.887 2.1692 148.624 4.38345C151.388 6.57195 152.77 9.66161 152.77 13.6524C152.77 16.2014 152.184 18.4543 151.01 20.411C149.863 22.3421 148.142 23.8483 145.848 24.9297C143.579 26.011 140.841 26.5517 137.634 26.5517H129.108V6.08276ZM137.517 25.0069C139.342 25.0069 140.959 24.5564 142.367 23.6552C143.8 22.754 144.909 21.4538 145.691 19.7545C146.499 18.0552 146.904 16.0726 146.904 13.8069C146.904 11.5669 146.499 9.61012 145.691 7.93656C144.909 6.23725 143.8 4.92414 142.367 3.99725C140.932 3.07035 139.289 2.6069 137.439 2.6069H137.126C136.265 2.6069 135.574 2.6584 135.053 2.76138L134.192 2.87725V24.7366L135.053 24.891C135.6 24.9683 136.291 25.0069 137.126 25.0069H137.517ZM159.822 6.31449C158.884 6.31449 158.154 6.03126 157.632 5.46483C157.137 4.8984 156.889 4.20323 156.889 3.37932C156.889 2.70989 157.085 2.18207 157.476 1.79587C157.894 1.40966 158.414 1.21656 159.04 1.21656C159.979 1.21656 160.696 1.49978 161.191 2.06621C161.713 2.63264 161.974 3.32782 161.974 4.15173C161.974 4.82116 161.766 5.34897 161.348 5.73518C160.957 6.12138 160.448 6.31449 159.822 6.31449ZM157.28 13.4207C157.28 12.1076 157.098 11.1421 156.733 10.5241C156.368 9.88047 155.638 9.55862 154.542 9.55862H154.151V8.4H158.845C159.783 8.4 160.501 8.55449 160.996 8.86345C161.492 9.17242 161.844 9.68736 162.052 10.4083C162.261 11.1035 162.365 12.1076 162.365 13.4207V26.5517H157.28V13.4207ZM172.402 26.9379C170.29 26.9379 168.647 26.4745 167.474 25.5476C166.326 24.595 165.753 23.3205 165.753 21.7241C165.753 20.4367 166.052 19.3683 166.652 18.5186C167.278 17.669 168.36 17.0253 169.898 16.5876C171.436 16.1498 173.575 15.931 176.313 15.931H176.899C176.899 13.691 176.586 12.1076 175.961 11.1807C175.335 10.2281 174.408 9.75173 173.184 9.75173C172.167 9.75173 171.332 9.99633 170.681 10.4855C170.028 10.9747 169.559 11.8887 169.273 13.2276H167.122C167.122 12.3522 167.173 11.6055 167.278 10.9876C167.408 10.3697 167.681 9.82897 168.099 9.36552C168.907 8.46437 170.863 8.0138 173.966 8.0138C176.573 8.0138 178.554 8.69609 179.911 10.0607C181.292 11.3995 181.984 13.4207 181.984 16.1241V26.5517H178.659L177.29 24.8138H177.095C176.86 25.1743 176.495 25.5347 176 25.8952C175.112 26.5903 173.913 26.9379 172.402 26.9379ZM173.575 25.0069C174.122 25.0069 174.592 24.904 174.983 24.6979C175.374 24.4662 175.752 24.1572 176.116 23.771C176.456 23.4105 176.716 22.9857 176.899 22.4966V17.669H176.313C174.461 17.669 173.118 18.0036 172.284 18.6731C171.449 19.3167 171.033 20.3338 171.033 21.7241C171.033 22.7798 171.254 23.5908 171.698 24.1572C172.14 24.7236 172.766 25.0069 173.575 25.0069ZM198.923 8.78621C199.392 9.12092 199.73 9.49426 199.939 9.90621C200.147 10.2924 200.252 10.4984 200.252 10.5241L198.258 12.0303C198.074 11.7986 197.84 11.554 197.554 11.2966C196.979 10.7816 196.314 10.5241 195.559 10.5241C194.046 10.5241 192.886 10.9232 192.078 11.7214L192.156 12.3007C192.208 12.7641 192.235 13.189 192.235 13.5752V26.5517H187.15V13.4207C187.15 12.1076 186.967 11.1421 186.601 10.5241C186.263 9.88047 185.547 9.55862 184.451 9.55862H184.06V8.4H187.932C188.818 8.4 189.509 8.51587 190.005 8.74759C190.526 8.95357 190.93 9.31402 191.218 9.82897C192.626 8.61885 194.268 8.0138 196.146 8.0138C197.266 8.0138 198.192 8.27126 198.923 8.78621ZM203.967 32.9241C205.4 32.9241 206.56 32.6538 207.448 32.1131C208.334 31.5724 209.051 30.594 209.599 29.1779L210.419 27.0924L203.38 11.8759C202.52 10.0221 201.307 8.99219 199.741 8.78621V8.0138H203.184C204.331 8.0138 205.348 8.29702 206.235 8.86345C207.121 9.40414 207.8 10.1508 208.269 11.1035L212.767 20.8359L217.538 8.4H219.611L211.711 29.0621C210.98 31.0703 210.133 32.435 209.168 33.1559C208.203 33.9026 206.99 34.2759 205.53 34.2759H203.967V32.9241Z" fill="#2B2A27"/>
</svg>
